<svg width="25" height="24" viewBox="0 0 25 24" fill="none" xmlns="http://www.w3.org/2000/svg">
<path d="M21.1949 8.80399V11.014C21.1949 11.2129 21.1159 11.4037 20.9752 11.5443C20.8346 11.685 20.6438 11.764 20.4449 11.764C20.246 11.764 20.0552 11.685 19.9146 11.5443C19.7739 11.4037 19.6949 11.2129 19.6949 11.014V8.80399C19.7013 8.54462 19.6571 8.28649 19.5649 8.04399L12.2649 12.424V20.614C12.3802 20.58 12.4902 20.5333 12.5949 20.474L15.1249 19.074C15.2967 18.9835 15.4969 18.9631 15.6834 19.0172C15.8699 19.0713 16.0282 19.1956 16.1249 19.364C16.2146 19.537 16.2335 19.7381 16.1775 19.9248C16.1215 20.1114 15.995 20.2689 15.8249 20.364L13.3049 21.764C12.7514 22.0722 12.1284 22.234 11.4949 22.234C10.8614 22.234 10.2384 22.0722 9.68489 21.764L3.68489 18.464C3.10588 18.1356 2.62358 17.6604 2.28653 17.0864C1.94948 16.5123 1.76956 15.8597 1.76489 15.194V8.80399C1.76489 8.13499 1.94489 7.47899 2.28489 6.90399C2.34289 6.80066 2.40956 6.70399 2.48489 6.61399C2.51999 6.56026 2.56017 6.51002 2.60489 6.46399C2.89624 6.0822 3.26409 5.76544 3.68489 5.53399L9.68489 2.22399C10.241 1.92378 10.863 1.7666 11.4949 1.7666C12.1268 1.7666 12.7488 1.92378 13.3049 2.22399L19.3049 5.53399C19.7259 5.76499 20.0939 6.08199 20.3849 6.46399L20.5049 6.61399C20.5809 6.70399 20.6476 6.80066 20.7049 6.90399C21.0391 7.48053 21.2086 8.13774 21.1949 8.80399Z" fill="#AA3030"/>
<path d="M22.9451 18.1741C23.0188 18.2427 23.0779 18.3255 23.1189 18.4175C23.1599 18.5095 23.1819 18.6088 23.1837 18.7095C23.1855 18.8102 23.167 18.9103 23.1292 19.0037C23.0915 19.0971 23.0354 19.1819 22.9641 19.2531C22.8929 19.3243 22.8081 19.3805 22.7147 19.4182C22.6213 19.4559 22.5213 19.4744 22.4206 19.4727C22.3199 19.4709 22.2206 19.4488 22.1286 19.4078C22.0366 19.3669 21.9538 19.3078 21.8851 19.2341L20.4351 17.8041L18.9451 19.2241C18.8773 19.2961 18.795 19.353 18.7037 19.3909C18.6123 19.4288 18.514 19.4469 18.4151 19.4441C18.3166 19.4445 18.2189 19.4253 18.1279 19.3875C18.0369 19.3498 17.9544 19.2942 17.8851 19.2241C17.7447 19.0834 17.6658 18.8928 17.6658 18.6941C17.6658 18.4953 17.7447 18.3047 17.8851 18.1641L19.3451 16.7041L17.9451 15.2441C17.8047 15.1034 17.7258 14.9128 17.7258 14.7141C17.7258 14.5153 17.8047 14.3247 17.9451 14.1841C18.0141 14.1133 18.0965 14.0571 18.1875 14.0187C18.2785 13.9803 18.3763 13.9605 18.4751 13.9605C18.5739 13.9605 18.6717 13.9803 18.7627 14.0187C18.8537 14.0571 18.9362 14.1133 19.0051 14.1841L20.4651 15.6441L21.9451 14.1741C22.0874 14.033 22.2797 13.9539 22.4801 13.9539C22.6805 13.9539 22.8728 14.033 23.0151 14.1741C23.1556 14.3147 23.2345 14.5053 23.2345 14.7041C23.2345 14.9028 23.1556 15.0934 23.0151 15.2341L21.5451 16.7041L22.9451 18.1741Z" fill="#AA3030"/>
</svg>
