<svg width="25" height="24" viewBox="0 0 25 24" fill="none" xmlns="http://www.w3.org/2000/svg">
<path fill-rule="evenodd" clip-rule="evenodd" d="M22.5 12C22.5 6.477 18.023 2 12.5 2C6.977 2 2.5 6.477 2.5 12C2.5 17.523 6.977 22 12.5 22C18.023 22 22.5 17.523 22.5 12ZM12.5 7C12.7652 7 13.0196 7.10536 13.2071 7.29289C13.3946 7.48043 13.5 7.73478 13.5 8V13C13.5 13.2652 13.3946 13.5196 13.2071 13.7071C13.0196 13.8946 12.7652 14 12.5 14C12.2348 14 11.9804 13.8946 11.7929 13.7071C11.6054 13.5196 11.5 13.2652 11.5 13V8C11.5 7.73478 11.6054 7.48043 11.7929 7.29289C11.9804 7.10536 12.2348 7 12.5 7ZM11.5 16C11.5 15.7348 11.6054 15.4804 11.7929 15.2929C11.9804 15.1054 12.2348 15 12.5 15H12.508C12.7732 15 13.0276 15.1054 13.2151 15.2929C13.4026 15.4804 13.508 15.7348 13.508 16C13.508 16.2652 13.4026 16.5196 13.2151 16.7071C13.0276 16.8946 12.7732 17 12.508 17H12.5C12.2348 17 11.9804 16.8946 11.7929 16.7071C11.6054 16.5196 11.5 16.2652 11.5 16Z" fill="#BF9D56"/>
</svg>
